<?xml version="1.0" encoding="UTF-8" standalone="no"?>
<svg
   xmlns:dc="http://purl.org/dc/elements/1.1/"
   xmlns:cc="http://creativecommons.org/ns#"
   xmlns:rdf="http://www.w3.org/1999/02/22-rdf-syntax-ns#"
   xmlns:svg="http://www.w3.org/2000/svg"
   xmlns="http://www.w3.org/2000/svg"
   width="139.48566mm"
   height="30.532732mm"
   viewBox="0 0 494.24052 108.18685"
   id="svg2"
   version="1.1">
  <defs
     id="defs4" />
  <metadata
     id="metadata7">
    <rdf:RDF>
      <cc:Work
         rdf:about="">
        <dc:format>image/svg+xml</dc:format>
        <dc:type
           rdf:resource="http://purl.org/dc/dcmitype/StillImage" />
        <dc:title></dc:title>
      </cc:Work>
    </rdf:RDF>
  </metadata>
  <g
     transform="translate(-100.02592,119.86099)"
     id="g4153">
    <path
       id="path3349"
       style="font-style:normal;font-variant:normal;font-weight:normal;font-stretch:normal;font-size:medium;line-height:125%;font-family:'Stalinist One';-inkscape-font-specification:'Stalinist One';letter-spacing:0px;word-spacing:0px;opacity:1;fill:none;fill-opacity:1;stroke:#c97c5d;stroke-width:3.48495364px;stroke-linecap:butt;stroke-linejoin:miter;stroke-opacity:1"
       d="m 101.7684,-26.520047 0,-19.93393 135.495,-70.535473 0,70.674863 21.46732,0 0,19.79454 -21.46732,0 0,13.10343 -36.38292,0 0,-13.10343 -99.11208,0 z m 46.83778,-19.79454 52.2743,0 0,-27.32203 -52.2743,27.32203 z" />
    <path
       id="path3351"
       style="font-style:normal;font-variant:normal;font-weight:normal;font-stretch:normal;font-size:medium;line-height:125%;font-family:'Stalinist One';-inkscape-font-specification:'Stalinist One';letter-spacing:0px;word-spacing:0px;opacity:1;fill:none;fill-opacity:1;stroke:#c97c5d;stroke-width:3.48495364px;stroke-linecap:butt;stroke-linejoin:miter;stroke-opacity:1"
       d="m 275.46065,-13.416617 0,-97.578713 143.4407,0 0,97.578713 -143.4407,0 z m 36.38292,-34.98894 55.4805,-42.79523 -55.4805,0 0,42.79523 z m 15.1944,15.1944 55.4805,0 0,-42.79523 -55.4805,42.79523 z" />
    <path
       id="path3353"
       style="font-style:normal;font-variant:normal;font-weight:normal;font-stretch:normal;font-size:medium;line-height:125%;font-family:'Stalinist One';-inkscape-font-specification:'Stalinist One';letter-spacing:0px;word-spacing:0px;opacity:1;fill:none;fill-opacity:1;stroke:#c97c5d;stroke-width:3.48495364px;stroke-linecap:butt;stroke-linejoin:miter;stroke-opacity:1"
       d="m 435.56162,-26.520047 0,-19.93393 135.495,-70.535473 0,70.674863 21.46732,0 0,19.79454 -21.46732,0 0,13.10343 -36.38291,0 0,-13.10343 -99.11209,0 z m 46.83778,-19.79454 52.27431,0 0,-27.32203 -52.27431,27.32203 z" />
  </g>
</svg>
